<svg width="8" height="10" viewBox="0 0 8 10" fill="none" xmlns="http://www.w3.org/2000/svg">
<path d="M7.22309 5.9425C7.18071 5.99083 7.0207 6.1975 6.87165 6.3675C5.99781 7.43667 3.71822 9.18667 2.52509 9.72083C2.34389 9.80667 1.88578 9.98833 1.64101 10C1.40648 10 1.1829 9.94 0.969557 9.81833C0.703605 9.64833 0.490258 9.38083 0.373356 9.065C0.298101 8.84583 0.181199 8.19 0.181199 8.17833C0.0642969 7.46083 3.23901e-07 6.295 4.36531e-07 5.00667C5.43843e-07 3.77917 0.0642969 2.66083 0.160011 1.9325C0.17097 1.92083 0.287872 1.10583 0.415734 0.826666C0.650269 0.316666 1.10838 -5.58773e-07 1.59864 -5.15914e-07L1.64101 -5.12209e-07C1.9603 0.0124993 2.63176 0.329167 2.63176 0.340833C3.7606 0.875833 5.98758 2.54 6.88261 3.64583C6.88261 3.64583 7.13468 3.93 7.24428 4.1075C7.41525 4.3625 7.5 4.67833 7.5 4.99417C7.5 5.34667 7.40429 5.675 7.22309 5.9425Z" fill="white"/>
</svg>
